<svg width="45" height="46" viewBox="0 0 45 46" fill="none" xmlns="http://www.w3.org/2000/svg">
<path d="M22.4999 23C19.5208 23 16.9704 21.8903 14.8489 19.6708C12.7274 17.4514 11.6666 14.7833 11.6666 11.6667C11.6666 8.55 12.7274 5.88194 14.8489 3.6625C16.9704 1.44305 19.5208 0.333332 22.4999 0.333332C25.4791 0.333332 28.0294 1.44305 30.151 3.6625C32.2725 5.88194 33.3333 8.55 33.3333 11.6667C33.3333 14.7833 32.2725 17.4514 30.151 19.6708C28.0294 21.8903 25.4791 23 22.4999 23ZM0.833252 45.6667V37.7333C0.833252 36.1278 1.22822 34.6521 2.01815 33.3063C2.80808 31.9604 3.85756 30.9333 5.16659 30.225C7.9652 28.7611 10.8089 27.6632 13.6978 26.9312C16.5867 26.1993 19.5208 25.8333 22.4999 25.8333C25.4791 25.8333 28.4131 26.1993 31.302 26.9312C34.1909 27.6632 37.0346 28.7611 39.8333 30.225C41.1423 30.9333 42.1918 31.9604 42.9817 33.3063C43.7716 34.6521 44.1666 36.1278 44.1666 37.7333V45.6667H0.833252ZM6.24992 40H38.7499V37.7333C38.7499 37.2139 38.6258 36.7417 38.3775 36.3167C38.1293 35.8917 37.802 35.5611 37.3958 35.325C34.9583 34.05 32.4982 33.0938 30.0155 32.4563C27.5329 31.8188 25.0277 31.5 22.4999 31.5C19.9721 31.5 17.4669 31.8188 14.9843 32.4563C12.5017 33.0938 10.0416 34.05 7.60409 35.325C7.19784 35.5611 6.87058 35.8917 6.62231 36.3167C6.37405 36.7417 6.24992 37.2139 6.24992 37.7333V40ZM22.4999 17.3333C23.9895 17.3333 25.2647 16.7785 26.3254 15.6687C27.3862 14.559 27.9166 13.225 27.9166 11.6667C27.9166 10.1083 27.3862 8.77431 26.3254 7.66458C25.2647 6.55486 23.9895 6 22.4999 6C21.0103 6 19.7352 6.55486 18.6744 7.66458C17.6136 8.77431 17.0833 10.1083 17.0833 11.6667C17.0833 13.225 17.6136 14.559 18.6744 15.6687C19.7352 16.7785 21.0103 17.3333 22.4999 17.3333Z" fill="white"/>
</svg>
